<?xml version="1.0" standalone="no"?>
<!DOCTYPE svg PUBLIC "-//W3C//DTD SVG 20010904//EN"
 "http://www.w3.org/TR/2001/REC-SVG-20010904/DTD/svg10.dtd">
<svg version="1.0" xmlns="http://www.w3.org/2000/svg"
 width="500.000000pt" height="500.000000pt" viewBox="0 0 500.000000 500.000000"
 preserveAspectRatio="xMidYMid meet">

<g transform="translate(0.000000,500.000000) scale(0.100000,-0.100000)"
fill="#000000" stroke="none">
<path d="M2345 4530 c-242 -26 -514 -123 -704 -252 -367 -250 -612 -642 -671
-1075 -17 -126 -8 -398 18 -518 42 -197 129 -399 245 -570 86 -126 275 -312
406 -399 347 -230 749 -312 1150 -235 306 59 576 204 801 429 216 216 354 469
422 777 19 84 22 128 22 303 0 227 -14 320 -75 502 -226 673 -910 1113 -1614
1038z m400 -106 c552 -92 1015 -516 1155 -1058 215 -836 -310 -1649 -1165
-1802 -123 -22 -351 -22 -480 0 -283 49 -538 178 -750 378 -310 293 -467 682
-452 1118 14 380 161 707 438 975 337 326 789 466 1254 389z"/>
<path d="M2190 4136 c0 -4 221 -381 277 -474 l21 -33 20 33 c11 18 68 119 127
223 59 105 116 205 127 223 l20 33 -97 -3 -97 -3 -43 -75 c-23 -41 -46 -75
-51 -77 -8 -3 -64 86 -64 101 0 3 16 6 35 6 25 0 37 6 45 21 7 11 10 23 7 25
-2 3 -45 3 -95 2 l-91 -3 78 -134 79 -133 42 73 c80 140 88 149 120 149 17 0
30 -3 30 -7 0 -12 -184 -333 -191 -333 -4 0 -58 88 -121 195 -110 189 -114
194 -145 195 -18 0 -33 -2 -33 -4z"/>
<path d="M1730 3593 c-149 -14 -266 -68 -370 -173 -124 -124 -177 -262 -167
-435 25 -432 428 -663 838 -479 80 36 225 145 349 263 l95 90 115 -113 c205
-200 355 -285 531 -301 273 -24 545 168 613 431 20 78 21 222 1 299 -36 140
-123 266 -232 335 -65 41 -181 77 -278 85 -207 17 -412 -83 -653 -318 l-102
-101 -108 105 c-132 131 -234 208 -337 255 -69 32 -202 66 -245 62 -8 -1 -31
-3 -50 -5z m213 -270 c81 -39 151 -91 277 -211 l95 -89 -44 -49 c-67 -73 -188
-178 -247 -214 -100 -61 -171 -83 -261 -83 -73 0 -90 4 -147 32 -103 51 -160
135 -179 265 -14 99 13 191 78 264 84 94 152 123 275 119 72 -2 96 -7 153 -34z
m1377 13 c128 -67 201 -200 187 -347 -18 -202 -207 -347 -402 -309 -120 24
-211 82 -380 244 l-100 96 102 99 c119 115 221 187 313 219 81 28 223 27 280
-2z"/>
<path d="M2468 2293 c-30 -34 -31 -59 -3 -77 22 -15 25 -15 25 -1 0 9 8 19 18
22 29 11 32 27 10 50 -26 28 -30 28 -50 6z m45 -13 c9 -11 12 -20 6 -20 -7 0
-18 8 -26 18 -14 16 -14 16 -9 -1 3 -10 2 -16 -3 -13 -5 3 -11 -1 -14 -8 -3
-8 -1 -17 6 -20 7 -2 4 -5 -5 -5 -22 -1 -22 2 -3 39 18 35 25 37 48 10z"/>
<path d="M2500 2220 c0 -5 5 -10 10 -10 6 0 10 5 10 10 0 6 -4 10 -10 10 -5 0
-10 -4 -10 -10z"/>
<path d="M2480 2129 c0 -5 -4 -8 -9 -4 -5 3 -13 0 -17 -6 -5 -8 -1 -11 12 -8
11 3 28 -5 41 -18 23 -24 15 -33 -9 -10 -19 17 -38 19 -38 5 0 -9 -4 -8 -10 2
-6 10 -10 11 -10 3 0 -7 10 -23 21 -34 17 -17 23 -19 30 -8 7 12 9 12 9 0 0
-11 5 -10 20 4 19 18 29 52 11 41 -4 -3 -17 4 -27 17 -10 12 -12 16 -4 10 8
-7 19 -13 25 -13 11 1 -25 30 -37 30 -4 0 -8 -5 -8 -11z m0 -59 c0 -5 -2 -10
-4 -10 -3 0 -8 5 -11 10 -3 6 -1 10 4 10 6 0 11 -4 11 -10z"/>
<path d="M2470 1961 c-13 -26 -13 -34 3 -25 6 4 4 -2 -6 -13 -16 -18 -16 -21
-2 -33 13 -11 15 -10 9 6 -5 18 -5 18 9 2 21 -26 25 -22 21 17 -2 32 -1 33 13
19 14 -13 14 -17 2 -26 -12 -8 -12 -9 1 -5 23 6 23 30 0 55 -25 27 -36 28 -50
3z"/>
<path d="M2020 1140 l0 -190 80 0 80 0 0 35 c0 34 -1 35 -40 35 l-40 0 0 45
c0 45 0 45 35 45 33 0 35 2 35 35 0 33 -2 35 -35 35 -34 0 -35 1 -35 40 0 39
1 40 35 40 33 0 35 2 35 35 l0 35 -75 0 -75 0 0 -190z"/>
<path d="M2190 1318 c0 -7 10 -93 22 -190 l21 -178 54 0 c36 0 53 4 53 13 0 6
9 82 20 167 27 208 27 200 -14 200 l-34 0 -7 -84 c-12 -144 -20 -164 -29 -71
-14 154 -14 155 -52 155 -21 0 -34 -5 -34 -12z"/>
<path d="M2410 1140 l0 -190 75 0 75 0 0 34 c0 33 -2 35 -37 38 -37 3 -38 4
-41 46 l-3 42 40 0 c40 0 41 1 41 34 0 33 -2 35 -37 38 -36 3 -38 5 -38 38 0
33 2 35 38 38 35 3 37 5 37 38 l0 34 -75 0 -75 0 0 -190z"/>
<path d="M2590 1140 l0 -190 40 0 40 0 0 85 c0 50 4 85 10 85 8 0 13 -57 13
-152 0 -14 8 -18 38 -18 l39 0 0 81 c0 44 -5 90 -11 101 -8 14 -8 23 0 31 6 6
11 37 11 69 0 82 -18 98 -110 98 l-70 0 0 -190z m108 88 c-4 -46 -28 -49 -28
-4 0 26 4 36 16 36 11 0 14 -8 12 -32z"/>
<path d="M2826 1298 c-3 -18 -10 -87 -16 -153 -6 -66 -13 -137 -16 -157 l-6
-38 41 0 c39 0 41 2 41 30 0 25 4 30 25 30 21 0 25 -5 25 -30 0 -28 3 -30 35
-30 42 0 40 -17 18 208 l-17 172 -62 0 -63 0 -5 -32z m78 -145 c5 -71 4 -83
-9 -83 -12 0 -15 12 -15 54 0 49 9 121 15 114 1 -2 5 -40 9 -85z"/>
</g>
</svg>
